<svg xmlns="http://www.w3.org/2000/svg" width="658" height="148" fill="none"><path d="M 19.425 135.774 C 22.634 134.525 25.397 132.386 27.714 129.355 C 30.032 126.325 31.191 122.848 31.191 118.926 C 31.191 117.857 31.012 116.431 30.656 114.647 L 29.854 111.706 L 29.319 111.974 C 25.04 114.469 22.01 116.519 20.227 118.124 C 17.375 120.263 15.235 122.58 13.809 125.077 C 12.739 126.859 12.115 128.375 11.937 129.623 C 11.581 131.584 11.581 133.01 11.937 133.901 C 12.115 134.97 12.918 135.684 14.344 136.04 C 14.7 136.218 15.324 136.308 16.216 136.308 C 16.929 136.308 17.998 136.13 19.425 135.774 Z M 1.508 136.308 C 1.152 134.168 0.973 132.653 0.973 131.762 C 0.973 129.445 1.419 126.949 2.31 124.274 C 3.737 120.352 6.232 116.609 9.798 113.043 C 13.363 109.478 17.731 106.269 22.901 103.417 L 24.238 102.615 L 14.611 91.383 C 12.65 89.244 11.046 86.837 9.798 84.163 C 8.193 80.954 7.391 77.656 7.391 74.269 C 7.391 68.029 9.709 62.77 14.344 58.492 C 18.979 54.213 24.06 51.539 29.586 50.469 C 31.726 50.113 33.241 49.934 34.132 49.934 C 36.806 49.934 39.302 50.469 41.62 51.539 C 45.007 52.787 47.681 55.104 49.642 58.492 C 50.89 61.344 51.514 63.751 51.514 65.712 C 51.514 68.386 50.533 71.149 48.572 74.001 C 46.611 77.032 44.026 79.082 40.818 80.152 C 40.104 80.687 39.124 80.954 37.876 80.954 C 37.519 80.954 36.806 80.776 35.737 80.419 C 33.419 79.35 32.26 77.478 32.26 74.804 C 32.439 73.734 32.884 72.753 33.597 71.862 C 34.311 70.971 35.291 70.436 36.539 70.258 C 38.143 69.723 39.391 68.653 40.283 67.049 C 40.461 66.692 40.55 66.157 40.55 65.444 C 40.55 64.375 40.193 63.483 39.48 62.77 C 38.233 61.522 36.717 60.898 34.934 60.898 L 33.597 60.898 C 32.706 60.898 31.369 61.076 29.586 61.433 C 25.843 63.038 22.99 64.909 21.029 67.049 C 18.712 69.544 17.82 72.486 18.355 75.873 C 18.355 77.121 18.801 78.458 19.692 79.884 C 20.583 81.667 21.653 83.182 22.901 84.43 L 30.121 92.987 C 29.943 92.809 31.191 94.324 33.865 97.533 L 34.132 97.801 C 34.489 97.801 34.756 97.712 34.934 97.533 C 40.818 95.216 46.968 93.166 53.386 91.383 C 54.455 91.026 57.129 90.313 61.408 89.244 L 65.687 88.442 C 69.252 88.442 71.302 89.6 71.837 91.918 C 72.015 92.453 72.104 93.077 72.104 93.79 C 72.104 95.216 71.302 96.375 69.698 97.266 L 62.21 99.405 C 62.567 99.227 60.517 99.851 56.06 101.277 C 52.673 102.169 49.82 103.059 47.503 103.951 C 45.363 104.665 42.957 105.734 40.283 107.16 C 39.926 107.16 39.659 107.25 39.48 107.428 C 40.015 108.319 40.372 109.3 40.55 110.369 C 41.441 113.578 41.887 116.431 41.887 118.926 C 41.887 124.988 40.104 130.425 36.539 135.238 C 33.152 140.051 28.784 143.528 23.436 145.667 C 20.762 146.558 18.266 147.004 15.948 147.004 C 12.026 147.004 8.907 146.024 6.589 144.063 C 4.093 142.281 2.4 139.695 1.508 136.308 Z" fill="rgb(244, 244, 245)"></path><path d="M 80.342 64.107 L 81.412 63.84 L 85.423 61.7 C 93.98 56.352 101.111 50.113 106.816 42.982 C 110.202 39.06 113.233 34.336 115.907 28.809 C 117.512 25.422 118.403 22.302 118.581 19.45 L 118.849 17.043 C 118.849 16.508 118.671 15.528 118.314 14.101 C 117.957 12.854 117.512 12.051 116.977 11.695 C 116.443 11.338 115.551 11.249 114.303 11.427 L 114.035 11.427 C 112.431 11.606 110.738 12.319 108.954 13.567 C 106.816 14.815 104.587 16.776 102.269 19.45 C 99.952 22.124 97.011 26.491 93.445 32.553 C 88.81 41.11 84.531 51.45 80.609 63.572 Z M 58.414 126.949 L 59.217 116.253 C 59.93 110.012 60.554 105.021 61.088 101.277 C 62.515 92.007 64.208 83.272 66.169 75.071 C 69.378 62.235 73.211 50.826 77.668 40.843 C 81.233 32.464 84.977 25.422 88.899 19.717 C 91.573 15.617 94.515 12.051 97.724 9.021 C 100.576 6.168 103.874 3.94 107.618 2.335 C 109.758 1.444 111.986 0.998 114.303 0.998 C 120.542 0.998 124.91 3.494 127.406 8.486 C 128.654 10.803 129.278 13.745 129.278 17.31 C 129.278 20.876 128.475 25.065 126.871 29.879 C 125.267 34.692 122.592 39.684 118.849 44.854 C 112.431 54.124 104.141 62.146 93.98 68.921 C 89.701 71.595 85.69 73.556 81.946 74.804 C 79.807 75.517 78.114 75.873 76.866 75.873 C 74.905 84.074 73.3 91.739 72.052 98.87 L 72.32 99.138 C 72.32 98.96 72.498 98.692 72.855 98.336 C 76.242 92.453 80.075 87.104 84.353 82.291 C 88.275 78.013 92.197 74.625 96.119 72.129 C 99.328 70.168 102.181 69.01 104.677 68.653 C 105.389 68.475 106.459 68.386 107.885 68.386 C 111.272 68.386 114.214 69.366 116.709 71.327 C 119.027 73.11 120.632 75.873 121.523 79.617 C 121.702 80.508 121.79 81.935 121.79 83.895 C 121.79 85.322 121.612 87.639 121.256 90.848 C 120.721 93.879 119.562 97.979 117.779 103.149 C 116.175 109.032 115.195 112.954 114.838 114.915 C 114.303 117.233 114.035 119.639 114.035 122.136 L 114.571 124.809 C 115.105 125.522 115.551 125.879 115.907 125.879 C 116.621 125.879 117.333 125.701 118.047 125.344 C 118.938 124.988 119.562 124.72 119.919 124.542 C 121.523 123.294 123.216 121.69 125 119.728 C 126.782 117.767 129.457 114.291 133.022 109.3 C 135.161 106.091 138.192 101.277 142.113 94.859 L 143.718 91.65 C 144.966 90.046 146.303 89.244 147.73 89.244 L 148.532 89.244 C 150.492 89.244 151.919 89.957 152.81 91.383 C 153.345 92.096 153.612 92.987 153.612 94.057 C 153.612 94.948 153.345 95.929 152.81 96.999 C 152.097 98.603 150.849 100.831 149.066 103.684 C 145.144 110.458 141.133 116.519 137.033 121.868 C 134.18 125.612 131.595 128.463 129.278 130.425 C 126.782 132.564 124.821 133.99 123.395 134.704 C 120.542 135.952 117.957 136.576 115.64 136.576 C 111.362 136.576 108.064 134.614 105.746 130.693 C 104.677 128.909 103.963 126.681 103.607 124.007 L 103.607 121.6 C 103.607 119.996 103.785 117.767 104.141 114.915 C 104.677 111.172 106.013 105.734 108.152 98.603 C 108.866 96.464 109.758 93.255 110.826 88.976 C 111.184 86.124 111.272 84.074 111.094 82.826 C 111.094 81.935 111.005 81.311 110.826 80.954 C 110.648 79.706 109.936 79.082 108.688 79.082 L 107.618 79.082 C 106.726 79.082 106.013 79.171 105.479 79.35 C 104.409 79.706 102.983 80.419 101.2 81.489 C 97.991 83.45 94.782 86.391 91.573 90.313 C 86.938 95.662 82.57 101.991 78.47 109.3 C 75.618 115.005 73.211 120.442 71.25 125.612 C 70.715 127.216 70.002 128.999 69.111 130.959 L 68.308 132.564 C 67.417 134.525 65.902 135.506 63.763 135.506 C 62.336 135.506 61.088 134.97 60.019 133.901 C 58.949 133.01 58.414 131.851 58.414 130.425 Z" fill="rgb(244, 244, 245)"></path><path d="M 181.6 100.207 C 182.492 97.177 182.938 94.414 182.938 91.918 C 182.938 90.135 182.848 88.798 182.67 87.907 C 182.136 84.876 180.71 82.648 178.392 81.221 C 177.144 80.33 175.896 79.884 174.647 79.884 C 173.579 79.884 172.597 80.152 171.707 80.687 C 169.567 81.935 168.23 83.895 167.696 86.57 C 167.516 87.104 167.428 87.907 167.428 88.976 C 167.428 92.007 168.586 94.681 170.904 96.999 C 173.4 99.673 176.876 101.188 181.334 101.545 Z M 139.884 115.717 C 139.35 110.369 139.974 104.665 141.756 98.603 C 144.252 90.581 147.907 83.717 152.72 78.013 C 154.324 76.23 156.018 74.536 157.801 72.932 L 159.941 71.862 C 160.475 71.506 161.277 71.327 162.347 71.327 C 163.239 71.327 163.951 71.506 164.486 71.862 L 165.021 72.129 L 165.556 71.862 C 168.408 70.079 171.439 69.188 174.647 69.188 C 178.926 69.188 182.848 70.703 186.414 73.734 C 189.623 76.586 191.762 80.241 192.832 84.698 C 193.366 87.015 193.634 89.511 193.634 92.185 C 193.634 94.681 193.366 97.444 192.832 100.475 C 192.654 100.475 192.564 100.653 192.564 101.01 L 192.564 101.277 L 194.971 100.743 C 199.071 99.851 203.706 97.89 208.876 94.859 L 214.492 91.65 C 215.561 91.116 216.542 90.848 217.434 90.848 C 219.038 90.848 220.286 91.383 221.178 92.453 C 222.068 93.344 222.514 94.503 222.514 95.929 C 222.514 97.355 222.158 98.514 221.444 99.405 C 220.91 100.297 220.108 101.01 219.038 101.545 L 211.283 105.823 C 206.826 108.14 202.013 110.012 196.843 111.439 C 194.704 111.974 192.476 112.241 190.158 112.241 C 189.623 112.419 188.909 112.508 188.019 112.508 L 187.483 113.311 C 184.275 119.015 180.086 123.74 174.915 127.483 C 170.815 130.514 166.804 132.475 162.882 133.366 C 160.386 133.723 158.693 133.901 157.801 133.901 C 150.848 133.901 145.767 130.871 142.558 124.809 C 141.132 121.956 140.241 118.926 139.884 115.717 Z M 150.581 115.449 C 150.938 117.411 151.562 119.105 152.453 120.53 C 153.522 122.136 154.86 122.938 156.464 122.938 L 158.069 123.204 C 160.207 123.204 162.347 122.58 164.486 121.333 C 168.765 119.372 172.509 116.163 175.717 111.706 C 175.539 111.528 175.272 111.439 174.915 111.439 C 172.063 110.726 169.122 109.3 166.09 107.16 C 161.813 103.951 159.049 100.119 157.801 95.662 C 157.444 94.414 157.088 92.898 156.732 91.116 L 156.464 91.383 L 156.464 91.65 C 154.146 95.394 152.453 99.673 151.383 104.486 C 150.492 108.764 150.225 112.419 150.581 115.449 Z" fill="rgb(244, 244, 245)"></path><path d="M 250.803 100.207 C 251.695 97.177 252.141 94.414 252.141 91.918 C 252.141 90.135 252.051 88.798 251.873 87.907 C 251.338 84.876 249.912 82.648 247.595 81.221 C 246.346 80.33 245.098 79.884 243.85 79.884 C 242.781 79.884 241.8 80.152 240.909 80.687 C 238.77 81.935 237.433 83.895 236.898 86.57 C 236.719 87.104 236.631 87.907 236.631 88.976 C 236.631 92.007 237.789 94.681 240.107 96.999 C 242.602 99.673 246.079 101.188 250.536 101.545 Z M 209.087 115.717 C 208.553 110.369 209.177 104.665 210.959 98.603 C 213.455 90.581 217.11 83.717 221.923 78.013 C 223.527 76.23 225.221 74.536 227.004 72.932 L 229.143 71.862 C 229.678 71.506 230.48 71.327 231.55 71.327 C 232.441 71.327 233.154 71.506 233.689 71.862 L 234.224 72.129 L 234.759 71.862 C 237.611 70.079 240.642 69.188 243.85 69.188 C 248.129 69.188 252.051 70.703 255.616 73.734 C 258.826 76.586 260.965 80.241 262.035 84.698 C 262.569 87.015 262.837 89.511 262.837 92.185 C 262.837 94.681 262.569 97.444 262.035 100.475 C 261.857 100.475 261.767 100.653 261.767 101.01 L 261.767 101.277 L 264.174 100.743 C 268.274 99.851 272.909 97.89 278.079 94.859 L 283.694 91.65 C 284.764 91.116 285.745 90.848 286.636 90.848 C 288.241 90.848 289.489 91.383 290.38 92.453 C 291.271 93.344 291.717 94.503 291.717 95.929 C 291.717 97.355 291.361 98.514 290.647 99.405 C 290.113 100.297 289.311 101.01 288.241 101.545 L 280.486 105.823 C 276.029 108.14 271.216 110.012 266.046 111.439 C 263.907 111.974 261.678 112.241 259.36 112.241 C 258.826 112.419 258.112 112.508 257.222 112.508 L 256.686 113.311 C 253.477 119.015 249.288 123.74 244.118 127.483 C 240.018 130.514 236.007 132.475 232.084 133.366 C 229.588 133.723 227.895 133.901 227.004 133.901 C 220.051 133.901 214.97 130.871 211.761 124.809 C 210.335 121.956 209.444 118.926 209.087 115.717 Z M 219.784 115.449 C 220.14 117.411 220.764 119.105 221.655 120.53 C 222.725 122.136 224.063 122.938 225.667 122.938 L 227.271 123.204 C 229.41 123.204 231.55 122.58 233.689 121.333 C 237.967 119.372 241.712 116.163 244.92 111.706 C 244.742 111.528 244.474 111.439 244.118 111.439 C 241.266 110.726 238.324 109.3 235.293 107.16 C 231.015 103.951 228.252 100.119 227.004 95.662 C 226.647 94.414 226.291 92.898 225.934 91.116 L 225.667 91.383 L 225.667 91.65 C 223.349 95.394 221.655 99.673 220.586 104.486 C 219.695 108.764 219.427 112.419 219.784 115.449 Z" fill="rgb(244, 244, 245)"></path><path d="M 347.55 40.308 C 346.658 41.199 345.588 41.734 344.34 41.912 L 343.004 41.912 L 336.586 41.645 L 321.343 41.11 L 307.972 41.11 C 304.764 50.38 302.446 57.333 301.02 61.968 C 297.633 72.843 295.048 82.558 293.266 91.116 C 292.196 96.82 291.572 101.099 291.394 103.951 C 291.215 106.091 291.126 109.122 291.126 113.043 C 291.482 115.539 291.839 117.411 292.196 118.659 L 293.266 120.798 C 294.335 122.402 295.672 123.204 297.276 123.204 L 298.881 122.938 C 299.951 122.76 300.931 122.314 301.822 121.6 C 303.605 120.53 305.744 118.837 308.24 116.519 C 312.697 112.063 316.619 107.071 320.006 101.545 L 326.157 91.918 L 327.227 90.313 C 328.474 89.065 329.811 88.442 331.238 88.442 C 332.128 88.442 333.11 88.798 334.179 89.511 C 335.783 90.581 336.586 92.096 336.586 94.057 L 336.051 96.196 L 335.516 97.266 L 328.563 107.962 C 324.463 114.915 319.472 120.888 313.589 125.879 C 310.736 128.375 308.508 130.157 306.903 131.227 C 302.981 133.01 299.773 133.901 297.276 133.901 C 291.928 133.901 287.561 131.495 284.173 126.681 C 282.925 124.72 281.945 122.136 281.232 118.926 C 280.697 116.253 280.43 113.667 280.43 111.172 C 280.43 107.25 280.697 103.327 281.232 99.405 C 281.766 94.057 282.747 88.352 284.173 82.291 C 285.777 76.051 287.382 69.99 288.987 64.107 C 292.196 53.767 294.78 46.012 296.741 40.843 L 289.254 40.843 L 276.686 41.11 L 273.477 41.11 C 272.051 41.11 270.803 40.575 269.733 39.505 C 268.664 38.436 268.128 37.188 268.128 35.762 C 268.128 34.336 268.664 33.088 269.733 32.018 C 270.625 30.948 271.783 30.414 273.209 30.414 C 276.597 30.235 281.588 30.146 288.185 30.146 L 300.485 30.146 L 304.496 20.252 L 307.17 13.299 C 307.527 12.586 307.706 12.14 307.706 11.962 C 308.953 10.179 310.558 9.288 312.519 9.288 C 312.875 9.288 313.589 9.466 314.658 9.823 C 315.549 10.179 316.262 10.893 316.797 11.962 C 317.51 12.854 317.867 13.834 317.867 14.904 L 317.6 16.241 C 317.243 16.954 317.065 17.489 317.065 17.845 C 315.817 20.519 314.123 24.709 311.984 30.414 C 318.936 30.414 324.195 30.503 327.761 30.681 L 340.597 30.948 L 344.34 31.216 C 345.766 31.572 346.926 32.196 347.817 33.088 C 348.708 33.979 349.154 35.138 349.154 36.564 C 349.154 37.99 348.619 39.238 347.55 40.308 Z" fill="rgb(244, 244, 245)"></path><path d="M 330.706 135.774 C 333.916 134.525 336.679 132.386 338.997 129.355 C 341.314 126.325 342.472 122.848 342.472 118.926 C 342.472 117.857 342.294 116.431 341.938 114.647 L 341.136 111.706 L 340.601 111.974 C 336.323 114.469 333.292 116.519 331.509 118.124 C 328.656 120.263 326.517 122.58 325.091 125.077 C 324.021 126.859 323.397 128.375 323.219 129.623 C 322.863 131.584 322.863 133.01 323.219 133.901 C 323.397 134.97 324.199 135.684 325.626 136.04 C 325.983 136.218 326.606 136.308 327.498 136.308 C 328.211 136.308 329.28 136.13 330.706 135.774 Z M 312.79 136.308 C 312.434 134.168 312.255 132.653 312.255 131.762 C 312.255 129.445 312.701 126.949 313.592 124.274 C 315.018 120.352 317.514 116.609 321.08 113.043 C 324.645 109.478 329.014 106.269 334.183 103.417 L 335.52 102.615 L 325.893 91.383 C 323.933 89.244 322.328 86.837 321.08 84.163 C 319.476 80.954 318.673 77.656 318.673 74.269 C 318.673 68.029 320.991 62.77 325.626 58.492 C 330.261 54.213 335.342 51.539 340.868 50.469 C 343.008 50.113 344.523 49.934 345.414 49.934 C 348.089 49.934 350.585 50.469 352.902 51.539 C 356.289 52.787 358.963 55.104 360.924 58.492 C 362.172 61.344 362.796 63.751 362.796 65.712 C 362.796 68.386 361.815 71.149 359.854 74.001 C 357.894 77.032 355.308 79.082 352.099 80.152 C 351.387 80.687 350.406 80.954 349.159 80.954 C 348.801 80.954 348.089 80.776 347.019 80.419 C 344.701 79.35 343.542 77.478 343.542 74.804 C 343.72 73.734 344.166 72.753 344.88 71.862 C 345.592 70.971 346.573 70.436 347.821 70.258 C 349.425 69.723 350.673 68.653 351.565 67.049 C 351.743 66.692 351.832 66.157 351.832 65.444 C 351.832 64.375 351.475 63.483 350.763 62.77 C 349.515 61.522 347.999 60.898 346.217 60.898 L 344.88 60.898 C 343.988 60.898 342.652 61.076 340.868 61.433 C 337.125 63.038 334.272 64.909 332.311 67.049 C 329.994 69.544 329.102 72.486 329.638 75.873 C 329.638 77.121 330.082 78.458 330.974 79.884 C 331.866 81.667 332.935 83.182 334.183 84.43 L 341.403 92.987 C 341.225 92.809 342.472 94.324 345.147 97.533 L 345.414 97.801 C 345.771 97.801 346.038 97.712 346.217 97.533 C 352.099 95.216 358.25 93.166 364.668 91.383 C 365.737 91.026 368.412 90.313 372.69 89.244 L 376.969 88.442 C 380.534 88.442 382.584 89.6 383.12 91.918 C 383.298 92.453 383.386 93.077 383.386 93.79 C 383.386 95.216 382.584 96.375 380.98 97.266 L 373.492 99.405 C 373.849 99.227 371.799 99.851 367.342 101.277 C 363.955 102.169 361.103 103.059 358.785 103.951 C 356.646 104.665 354.239 105.734 351.565 107.16 C 351.208 107.16 350.941 107.25 350.763 107.428 C 351.297 108.319 351.654 109.3 351.832 110.369 C 352.723 113.578 353.169 116.431 353.169 118.926 C 353.169 124.988 351.387 130.425 347.821 135.238 C 344.434 140.051 340.066 143.528 334.718 145.667 C 332.044 146.558 329.548 147.004 327.23 147.004 C 323.309 147.004 320.189 146.024 317.871 144.063 C 315.376 142.281 313.682 139.695 312.79 136.308 Z" fill="rgb(244, 244, 245)"></path><path d="M 438.688 40.308 C 437.797 41.199 436.727 41.734 435.479 41.912 L 434.142 41.912 L 427.724 41.645 L 412.482 41.11 L 399.111 41.11 C 395.903 50.38 393.585 57.333 392.159 61.968 C 388.772 72.843 386.187 82.558 384.404 91.116 C 383.335 96.82 382.711 101.099 382.532 103.951 C 382.353 106.091 382.265 109.122 382.265 113.043 C 382.621 115.539 382.977 117.411 383.335 118.659 L 384.404 120.798 C 385.473 122.402 386.811 123.204 388.415 123.204 L 390.02 122.938 C 391.09 122.76 392.07 122.314 392.961 121.6 C 394.744 120.53 396.883 118.837 399.379 116.519 C 403.836 112.063 407.758 107.071 411.145 101.545 L 417.296 91.918 L 418.365 90.313 C 419.613 89.065 420.95 88.442 422.377 88.442 C 423.267 88.442 424.248 88.798 425.318 89.511 C 426.922 90.581 427.724 92.096 427.724 94.057 L 427.19 96.196 L 426.655 97.266 L 419.702 107.962 C 415.602 114.915 410.61 120.888 404.727 125.879 C 401.874 128.375 399.646 130.157 398.042 131.227 C 394.12 133.01 390.911 133.901 388.415 133.901 C 383.067 133.901 378.699 131.495 375.312 126.681 C 374.064 124.72 373.084 122.136 372.371 118.926 C 371.835 116.253 371.569 113.667 371.569 111.172 C 371.569 107.25 371.835 103.327 372.371 99.405 C 372.905 94.057 373.886 88.352 375.312 82.291 C 376.916 76.051 378.521 69.99 380.125 64.107 C 383.335 53.767 385.919 46.012 387.88 40.843 L 380.393 40.843 L 367.825 41.11 L 364.616 41.11 C 363.19 41.11 361.942 40.575 360.872 39.505 C 359.802 38.436 359.267 37.188 359.267 35.762 C 359.267 34.336 359.802 33.088 360.872 32.018 C 361.763 30.948 362.922 30.414 364.348 30.414 C 367.735 30.235 372.727 30.146 379.323 30.146 L 391.624 30.146 L 395.635 20.252 L 398.309 13.299 C 398.666 12.586 398.844 12.14 398.844 11.962 C 400.092 10.179 401.696 9.288 403.658 9.288 C 404.014 9.288 404.727 9.466 405.797 9.823 C 406.688 10.179 407.401 10.893 407.936 11.962 C 408.649 12.854 409.005 13.834 409.005 14.904 L 408.739 16.241 C 408.381 16.954 408.203 17.489 408.203 17.845 C 406.955 20.519 405.262 24.709 403.122 30.414 C 410.075 30.414 415.334 30.503 418.9 30.681 L 431.736 30.948 L 435.479 31.216 C 436.905 31.572 438.064 32.196 438.956 33.088 C 439.847 33.979 440.293 35.138 440.293 36.564 C 440.293 37.99 439.758 39.238 438.688 40.308 Z" fill="rgb(244, 244, 245)"></path><path d="M 411.416 114.113 C 411.416 105.377 414.804 96.553 421.578 87.639 C 425.5 82.648 429.779 78.815 434.414 76.141 C 438.336 73.823 441.723 72.486 444.575 72.129 C 446.359 71.773 447.695 71.595 448.587 71.595 C 450.904 71.595 453.222 72.129 455.539 73.199 C 458.035 74.09 460.353 76.051 462.492 79.082 L 462.759 79.617 L 464.631 79.617 C 466.058 79.795 467.216 80.508 468.108 81.756 C 468.999 83.004 469.355 84.341 469.177 85.767 L 468.375 88.442 L 466.504 94.057 C 464.72 99.584 463.651 102.971 463.294 104.219 C 462.403 107.071 461.779 110.369 461.422 114.113 L 461.155 116.519 C 461.155 117.233 461.333 118.302 461.689 119.728 C 462.225 121.154 463.116 122.136 464.364 122.67 C 464.72 123.026 465.434 123.204 466.504 123.204 C 468.82 122.848 471.762 121.422 475.327 118.926 C 479.072 115.895 482.815 112.241 486.559 107.962 L 496.72 94.859 C 496.899 94.503 497.344 93.968 498.057 93.255 C 498.949 92.364 500.107 91.918 501.534 91.918 C 502.782 91.918 503.851 92.274 504.742 92.987 C 505.812 93.701 506.436 94.681 506.614 95.929 C 506.792 96.286 506.882 96.82 506.882 97.533 C 506.882 98.425 506.614 99.316 506.08 100.207 L 505.278 101.277 C 500.285 108.23 495.918 113.756 492.174 117.857 C 488.787 121.6 485.311 124.72 481.746 127.216 C 478.536 129.711 475.684 131.405 473.189 132.297 C 471.049 133.01 468.91 133.544 466.77 133.901 C 464.453 133.901 462.759 133.634 461.689 133.099 C 456.163 131.495 452.686 127.751 451.26 121.868 L 450.726 119.194 C 450.726 119.194 450.458 119.461 449.924 119.996 C 446.715 123.383 443.506 126.235 440.296 128.553 C 437.088 130.693 434.235 132.118 431.739 132.832 C 429.6 133.188 428.174 133.366 427.462 133.366 C 423.896 133.366 420.865 132.386 418.369 130.425 C 416.23 128.643 414.536 126.325 413.288 123.472 C 412.04 120.442 411.416 117.322 411.416 114.113 Z M 421.845 115.449 C 421.845 117.946 422.737 119.907 424.52 121.333 C 425.232 122.224 426.302 122.67 427.728 122.67 L 428.798 122.402 C 430.581 121.868 432.542 120.888 434.681 119.461 C 438.782 116.609 442.436 112.865 445.645 108.23 L 450.191 101.277 C 451.617 99.138 452.598 97.177 453.132 95.394 C 453.846 93.79 454.202 91.829 454.202 89.511 C 454.202 88.263 454.113 87.283 453.934 86.57 C 453.578 84.609 452.508 83.361 450.726 82.826 C 449.656 82.469 448.854 82.291 448.319 82.291 C 445.289 82.291 441.99 83.628 438.425 86.302 C 435.929 88.263 433.879 90.224 432.275 92.185 C 430.848 94.146 428.798 97.355 426.124 101.812 C 424.163 105.199 422.826 109.21 422.113 113.845 Z" fill="rgb(244, 244, 245)"></path><path d="M 578.496 95.394 C 578.496 96.286 578.228 97.177 577.694 98.068 L 576.624 99.405 C 570.206 106.536 565.214 111.706 561.649 114.915 C 555.409 120.62 549.437 124.988 543.732 128.019 C 538.74 130.871 533.481 132.653 527.955 133.366 C 525.46 133.723 523.588 133.901 522.339 133.901 C 519.665 133.901 517.259 133.544 515.12 132.832 C 506.385 130.514 500.501 124.898 497.47 115.985 C 496.757 113.667 496.223 109.834 495.866 104.486 C 496.401 94.503 499.788 86.035 506.027 79.082 C 510.128 74.447 514.584 71.416 519.399 69.99 C 521.537 69.277 523.855 68.921 526.35 68.921 C 528.49 68.921 530.094 69.099 531.164 69.455 C 535.977 70.882 539.276 73.823 541.058 78.28 C 541.593 79.884 541.86 81.578 541.86 83.361 C 541.86 84.787 541.593 86.48 541.058 88.442 C 540.702 89.868 540.166 91.116 539.454 92.185 C 538.206 93.968 536.601 94.859 534.641 94.859 C 532.679 94.859 531.343 94.146 530.629 92.72 C 529.916 92.007 529.56 90.937 529.56 89.511 C 529.56 88.442 529.738 87.639 530.094 87.104 L 530.897 85.233 C 531.075 84.876 531.164 84.163 531.164 83.093 C 531.164 81.845 530.54 80.954 529.292 80.419 C 528.579 79.884 527.42 79.617 525.816 79.617 C 523.142 79.617 520.645 80.508 518.329 82.291 C 514.763 84.787 511.91 88.352 509.771 92.987 C 507.811 96.553 506.829 100.475 506.829 104.753 C 506.829 109.032 507.365 112.241 508.434 114.381 C 510.93 120.263 515.654 123.204 522.607 123.204 L 525.548 122.938 C 530.005 122.402 534.462 120.888 538.919 118.391 C 543.376 116.073 548.902 111.974 555.498 106.091 C 559.243 102.525 562.451 99.227 565.126 96.196 L 569.136 91.65 C 570.384 90.402 571.633 89.779 572.88 89.779 C 573.593 89.779 574.128 89.868 574.485 90.046 C 577.158 90.759 578.496 92.542 578.496 95.394 Z" fill="rgb(244, 244, 245)"></path><path d="M 592.034 94.057 C 596.312 93.166 599.967 92.007 602.997 90.581 C 607.811 88.62 611.643 86.659 614.496 84.698 L 617.704 81.756 L 618.24 80.687 L 615.566 80.687 C 612.357 81.4 609.861 82.113 608.078 82.826 C 602.195 85.322 596.757 88.976 591.766 93.79 C 591.766 93.79 591.676 93.879 591.498 94.057 Z M 564.49 129.087 C 564.49 127.661 564.58 126.592 564.758 125.879 C 565.114 120.53 565.47 116.609 565.827 114.113 L 567.699 99.138 C 569.125 90.759 570.373 84.163 571.443 79.35 C 575.008 64.018 579.554 50.469 585.081 38.703 C 587.933 32.107 591.231 26.313 594.975 21.322 C 598.897 16.152 602.819 11.962 606.741 8.753 C 610.841 5.544 614.763 3.405 618.507 2.335 C 619.22 2.157 620.022 1.979 620.914 1.801 C 621.805 1.622 622.875 1.533 624.123 1.533 C 629.47 1.533 633.482 3.94 636.156 8.753 C 637.583 11.249 638.473 14.012 638.83 17.043 C 639.009 17.934 639.097 19.093 639.097 20.519 C 639.097 25.511 637.761 30.859 635.087 36.564 C 632.769 41.734 629.56 46.369 625.459 50.469 C 618.507 57.778 610.663 63.394 601.928 67.316 C 598.541 68.921 594.886 69.99 590.964 70.525 C 589.359 71.06 587.487 71.149 585.348 70.792 L 584.545 70.792 C 582.407 78.636 580.98 84.965 580.267 89.779 L 581.069 89.244 C 586.417 83.539 592.122 79.082 598.183 75.873 C 602.284 73.377 606.652 71.595 611.287 70.525 C 613.961 69.99 616.456 69.812 618.774 69.99 C 620.914 70.347 622.339 70.703 623.053 71.06 C 625.014 71.773 626.529 73.021 627.599 74.804 C 628.668 76.408 629.204 78.191 629.204 80.152 C 629.204 81.043 629.025 82.202 628.668 83.628 C 628.312 85.411 627.153 87.372 625.192 89.511 L 620.646 93.522 C 615.476 96.909 610.307 99.494 605.136 101.277 C 601.928 102.525 598.183 103.595 593.905 104.486 L 593.37 104.753 L 593.37 105.288 L 596.312 112.776 C 597.203 115.449 598.095 117.679 598.986 119.461 C 600.234 121.422 601.66 122.848 603.264 123.74 C 603.621 123.918 604.512 124.274 605.938 124.809 C 606.652 124.988 607.632 125.077 608.88 125.077 C 610.841 125.077 613.337 124.631 616.368 123.74 C 619.576 122.67 623.053 120.53 626.797 117.322 C 632.68 112.508 638.027 106.536 642.842 99.405 L 646.585 93.79 L 647.922 92.185 C 648.813 91.294 650.061 90.848 651.665 90.848 C 653.092 90.848 654.162 91.205 654.874 91.918 C 656.3 92.987 657.014 94.414 657.014 96.196 C 657.014 97.088 656.746 97.979 656.212 98.87 C 648.903 110.28 641.326 119.283 633.482 125.879 C 628.49 129.801 623.765 132.475 619.309 133.901 C 615.566 135.15 612.178 135.774 609.147 135.774 C 601.482 135.774 595.599 132.921 591.498 127.216 C 589.538 124.542 587.844 121.333 586.417 117.589 C 584.813 112.954 583.655 109.924 582.941 108.498 L 581.872 106.091 C 581.872 106.091 581.783 106.091 581.604 106.091 C 581.604 105.912 581.604 105.823 581.604 105.823 C 580.891 104.932 580.178 104.932 579.465 105.823 C 578.574 107.25 578.038 108.498 577.86 109.566 C 577.148 112.419 576.612 115.449 576.256 118.659 C 575.9 121.154 575.543 124.72 575.186 129.355 C 575.008 129.711 574.919 130.335 574.919 131.227 C 574.741 132.475 574.206 133.456 573.315 134.168 C 572.601 134.882 571.71 135.328 570.641 135.506 L 569.571 135.506 C 568.145 135.506 566.986 135.06 566.094 134.168 C 565.024 133.277 564.49 132.029 564.49 130.425 Z M 588.022 60.096 C 588.735 60.096 589.27 60.007 589.626 59.829 C 592.657 59.294 595.777 58.313 598.986 56.887 C 604.869 54.035 610.128 50.38 614.763 45.923 C 618.507 42.536 621.27 39.238 623.053 36.029 C 626.262 31.394 627.955 26.581 628.134 21.589 L 628.134 19.717 C 628.134 18.113 627.866 16.508 627.331 14.904 C 626.797 13.121 625.727 12.23 624.123 12.23 C 622.518 12.23 620.468 12.854 617.972 14.101 C 615.654 15.528 613.159 17.4 610.485 19.717 C 606.384 23.817 602.552 28.987 598.986 35.227 C 594.886 42.358 591.231 50.469 588.022 59.561 Z" fill="rgb(244, 244, 245)"></path></svg>